<svg width="205" height="28" viewBox="0 0 205 28" fill="none" xmlns="http://www.w3.org/2000/svg">
<path d="M10.1999 0H1.7999C1.0399 0 0.399902 0.640001 0.399902 1.44V26.56C0.399902 27.36 1.0399 28 1.7999 28H10.1999C19.5199 28 25.0399 22.56 25.0399 14C25.0399 5.44 19.5199 0 10.1999 0ZM10.1999 21.52H7.2399V6.44H10.1999C14.7599 6.44 18.1999 9.04 18.1999 14C18.1999 18.96 14.7599 21.52 10.1999 21.52Z" fill="url(#paint0_linear_447_359)"/>
<path d="M52.7565 26.4L47.6765 17.08C50.3565 15.56 51.9965 13 51.9965 9.68C51.9965 4.04 48.3565 0 41.2365 0H31.9165C31.1165 0 30.4765 0.640001 30.4765 1.44V26.56C30.4765 27.36 31.1165 28 31.9165 28H35.9165C36.6765 28 37.3165 27.36 37.3165 26.56V18.64H41.2365C41.3565 18.64 41.5165 18.6 41.6365 18.6L45.8365 27C46.1565 27.6 46.7565 28 47.4365 28H51.8365C52.6365 28 53.1565 27.12 52.7565 26.4ZM37.3165 6.44H41.2365C43.5165 6.44 45.0765 7.6 45.0765 9.68C45.0765 12.04 43.2365 12.88 41.2365 12.88H37.3165V6.44Z" fill="url(#paint1_linear_447_359)"/>
<path d="M78.453 28H82.773C83.533 28 84.053 27.28 83.773 26.56L74.653 1.16C74.413 0.480001 73.733 0 72.973 0H67.413C66.653 0 65.973 0.480001 65.733 1.16L56.573 26.56C56.333 27.28 56.853 28 57.573 28H61.933C62.733 28 63.413 27.48 63.653 26.76L64.893 22.76H75.493L76.733 26.76C76.973 27.48 77.653 28 78.453 28ZM66.533 17.6L70.173 5.92L73.853 17.6H66.533Z" fill="url(#paint2_linear_447_359)"/>
<path d="M116.444 1.32L111.924 18.4L107.124 1.28C106.884 0.520001 106.204 0 105.404 0H103.244C102.444 0 101.724 0.520001 101.524 1.28L96.7243 18.4L92.2043 1.32C92.0043 0.56 91.2843 0 90.4843 0H86.1243C85.4043 0 84.8843 0.680001 85.0843 1.4L92.9243 26.76C93.1643 27.48 93.8443 28 94.6443 28H98.2443C99.0443 28 99.7243 27.48 99.9643 26.68L104.324 11.2L108.684 26.68C108.884 27.48 109.604 28 110.364 28H114.004C114.764 28 115.444 27.48 115.684 26.76L123.524 1.4C123.724 0.680001 123.204 0 122.484 0H118.164C117.324 0 116.644 0.56 116.444 1.32Z" fill="url(#paint3_linear_447_359)"/>
<path d="M135.202 21.52V1.44C135.202 0.640001 134.562 0 133.802 0H129.762C129.002 0 128.362 0.640001 128.362 1.44V26.56C128.362 27.36 129.002 28 129.762 28H144.242C145.002 28 145.642 27.36 145.642 26.56V22.96C145.642 22.16 145.002 21.52 144.242 21.52H135.202Z" fill="url(#paint4_linear_447_359)"/>
<path d="M150.9 1.44V26.56C150.9 27.36 151.54 28 152.34 28H156.34C157.14 28 157.78 27.36 157.78 26.56V1.44C157.78 0.640001 157.14 0 156.34 0H152.34C151.54 0 150.9 0.640001 150.9 1.44Z" fill="url(#paint5_linear_447_359)"/>
<path d="M181.621 5.04V1.44C181.621 0.640001 180.981 0 180.181 0H165.581C164.821 0 164.181 0.640001 164.181 1.44V26.56C164.181 27.36 164.821 28 165.581 28H169.581C170.381 28 171.021 27.36 171.021 26.56V18.24H179.021C179.821 18.24 180.461 17.6 180.461 16.84V13.2C180.461 12.44 179.821 11.8 179.021 11.8H171.021V6.44H180.181C180.981 6.44 181.621 5.8 181.621 5.04Z" fill="url(#paint6_linear_447_359)"/>
<path d="M194.026 21.52V16.92H201.706C202.506 16.92 203.146 16.28 203.146 15.48V12.24C203.146 11.44 202.506 10.8 201.706 10.8H194.026V6.44H202.986C203.786 6.44 204.426 5.8 204.426 5.04V1.44C204.426 0.640001 203.786 0 202.986 0H188.626C187.826 0 187.186 0.640001 187.186 1.44V26.56C187.186 27.36 187.826 28 188.626 28H203.346C204.146 28 204.786 27.36 204.786 26.56V22.96C204.786 22.16 204.146 21.52 203.346 21.52H194.026Z" fill="url(#paint7_linear_447_359)"/>
<defs>
<linearGradient id="paint0_linear_447_359" x1="0.556681" y1="3.32638e-06" x2="198.831" y2="43.0828" gradientUnits="userSpaceOnUse">
<stop stop-color="#EEC170"/>
<stop offset="1" stop-color="#DE3C4B"/>
</linearGradient>
<linearGradient id="paint1_linear_447_359" x1="0.556681" y1="3.32638e-06" x2="198.831" y2="43.0828" gradientUnits="userSpaceOnUse">
<stop stop-color="#EEC170"/>
<stop offset="1" stop-color="#DE3C4B"/>
</linearGradient>
<linearGradient id="paint2_linear_447_359" x1="0.556681" y1="3.32638e-06" x2="198.831" y2="43.0828" gradientUnits="userSpaceOnUse">
<stop stop-color="#EEC170"/>
<stop offset="1" stop-color="#DE3C4B"/>
</linearGradient>
<linearGradient id="paint3_linear_447_359" x1="0.556681" y1="3.32638e-06" x2="198.831" y2="43.0828" gradientUnits="userSpaceOnUse">
<stop stop-color="#EEC170"/>
<stop offset="1" stop-color="#DE3C4B"/>
</linearGradient>
<linearGradient id="paint4_linear_447_359" x1="0.556681" y1="3.32638e-06" x2="198.831" y2="43.0828" gradientUnits="userSpaceOnUse">
<stop stop-color="#EEC170"/>
<stop offset="1" stop-color="#DE3C4B"/>
</linearGradient>
<linearGradient id="paint5_linear_447_359" x1="0.556681" y1="3.32638e-06" x2="198.831" y2="43.0828" gradientUnits="userSpaceOnUse">
<stop stop-color="#EEC170"/>
<stop offset="1" stop-color="#DE3C4B"/>
</linearGradient>
<linearGradient id="paint6_linear_447_359" x1="0.556681" y1="3.32638e-06" x2="198.831" y2="43.0828" gradientUnits="userSpaceOnUse">
<stop stop-color="#EEC170"/>
<stop offset="1" stop-color="#DE3C4B"/>
</linearGradient>
<linearGradient id="paint7_linear_447_359" x1="0.556681" y1="3.32638e-06" x2="198.831" y2="43.0828" gradientUnits="userSpaceOnUse">
<stop stop-color="#EEC170"/>
<stop offset="1" stop-color="#DE3C4B"/>
</linearGradient>
</defs>
</svg>
